<svg width="420" height="21" viewBox="0 0 420 21" fill="none" xmlns="http://www.w3.org/2000/svg">
<g clip-path="url(#clip0_2_297)">
<path d="M14.8938 16.5299V3.64514H24.2102V5.16565H16.5989V9.11194H23.7268V10.6237H16.5989V15.0094H24.509V16.5299H14.8938ZM25.6077 16.5299L29.0178 11.6783L25.8625 7.19592H27.8401L29.2727 9.3844C29.5422 9.80042 29.759 10.149 29.9231 10.4303C30.1809 10.0436 30.4182 9.70081 30.635 9.40198L32.2083 7.19592H34.0979L30.8723 11.5905L34.344 16.5299H32.4016L30.4856 13.6295L29.9758 12.8473L27.5237 16.5299H25.6077ZM41.7532 13.111L43.3088 13.3131C43.1389 14.3854 42.7024 15.2262 41.9993 15.8356C41.302 16.4391 40.4436 16.7408 39.4241 16.7408C38.1467 16.7408 37.1184 16.3248 36.3391 15.4928C35.5657 14.6549 35.179 13.4567 35.179 11.8981C35.179 10.8903 35.3459 10.0084 35.6799 9.25256C36.0139 8.4967 36.5208 7.93127 37.2004 7.55627C37.886 7.17542 38.6301 6.98499 39.4329 6.98499C40.4465 6.98499 41.2756 7.2428 41.9202 7.75842C42.5647 8.26819 42.9778 8.99475 43.1594 9.93811L41.6213 10.1754C41.4749 9.54846 41.2141 9.07678 40.8391 8.76038C40.47 8.44397 40.0217 8.28577 39.4944 8.28577C38.6975 8.28577 38.05 8.57288 37.552 9.14709C37.054 9.71545 36.8049 10.6178 36.8049 11.8541C36.8049 13.108 37.0452 14.0192 37.5256 14.5875C38.0061 15.1559 38.6331 15.4401 39.4065 15.4401C40.0276 15.4401 40.5461 15.2496 40.9622 14.8688C41.3782 14.4879 41.6418 13.902 41.7532 13.111ZM51.052 13.524L52.6868 13.7262C52.429 14.6813 51.9514 15.4225 51.2542 15.9498C50.5569 16.4772 49.6663 16.7408 48.5823 16.7408C47.217 16.7408 46.1331 16.3219 45.3303 15.484C44.5334 14.6403 44.135 13.4596 44.135 11.942C44.135 10.3717 44.5393 9.15295 45.3479 8.28577C46.1565 7.41858 47.2053 6.98499 48.4944 6.98499C49.7424 6.98499 50.762 7.40979 51.553 8.2594C52.344 9.10901 52.7395 10.3043 52.7395 11.8453C52.7395 11.9391 52.7366 12.0797 52.7307 12.2672H45.7698C45.8284 13.2926 46.1184 14.0778 46.6399 14.6227C47.1614 15.1676 47.8118 15.4401 48.5911 15.4401C49.1711 15.4401 49.6663 15.2877 50.0764 14.983C50.4866 14.6783 50.8118 14.192 51.052 13.524ZM45.8577 10.9664H51.0696C50.9993 10.1813 50.8 9.59241 50.4719 9.19983C49.968 8.59045 49.3147 8.28577 48.512 8.28577C47.7854 8.28577 47.1731 8.52893 46.675 9.01526C46.1829 9.50159 45.9104 10.152 45.8577 10.9664ZM54.6467 16.5299V3.64514H56.2288V16.5299H54.6467ZM58.6545 16.5299V3.64514H60.2366V16.5299H58.6545ZM69.0872 13.524L70.7219 13.7262C70.4641 14.6813 69.9866 15.4225 69.2893 15.9498C68.592 16.4772 67.7014 16.7408 66.6174 16.7408C65.2522 16.7408 64.1682 16.3219 63.3655 15.484C62.5686 14.6403 62.1702 13.4596 62.1702 11.942C62.1702 10.3717 62.5745 9.15295 63.3831 8.28577C64.1917 7.41858 65.2405 6.98499 66.5295 6.98499C67.7776 6.98499 68.7971 7.40979 69.5881 8.2594C70.3792 9.10901 70.7747 10.3043 70.7747 11.8453C70.7747 11.9391 70.7717 12.0797 70.7659 12.2672H63.8049C63.8635 13.2926 64.1536 14.0778 64.675 14.6227C65.1965 15.1676 65.8469 15.4401 66.6262 15.4401C67.2063 15.4401 67.7014 15.2877 68.1116 14.983C68.5217 14.6783 68.8469 14.192 69.0872 13.524ZM63.8928 10.9664H69.1047C69.0344 10.1813 68.8352 9.59241 68.5071 9.19983C68.0032 8.59045 67.3499 8.28577 66.5471 8.28577C65.8206 8.28577 65.2083 8.52893 64.7102 9.01526C64.218 9.50159 63.9456 10.152 63.8928 10.9664ZM72.717 16.5299V7.19592H74.1409V8.52307C74.8264 7.49768 75.8167 6.98499 77.1116 6.98499C77.6741 6.98499 78.1897 7.08752 78.6584 7.2926C79.1331 7.49182 79.4875 7.75549 79.7219 8.08362C79.9563 8.41174 80.1204 8.80139 80.2141 9.25256C80.2727 9.54553 80.302 10.0582 80.302 10.7906V16.5299H78.72V10.8522C78.72 10.2076 78.6584 9.72717 78.5354 9.41077C78.4124 9.0885 78.1926 8.83362 77.8762 8.64612C77.5657 8.45276 77.1995 8.35608 76.7776 8.35608C76.1038 8.35608 75.5208 8.56995 75.0286 8.99768C74.5422 9.42542 74.2991 10.2369 74.2991 11.4323V16.5299H72.717ZM86.1907 15.1149L86.4192 16.5123C85.9739 16.6061 85.5754 16.653 85.2239 16.653C84.6497 16.653 84.2043 16.5621 83.8879 16.3805C83.5715 16.1989 83.3489 15.9615 83.22 15.6686C83.0911 15.3698 83.0266 14.7457 83.0266 13.7965V8.42639H81.8665V7.19592H83.0266V4.8844L84.5999 3.93518V7.19592H86.1907V8.42639H84.5999V13.8844C84.5999 14.3356 84.6262 14.6256 84.679 14.7545C84.7375 14.8834 84.8284 14.986 84.9514 15.0621C85.0803 15.1383 85.262 15.1764 85.4963 15.1764C85.6721 15.1764 85.9036 15.1559 86.1907 15.1149Z" fill="#191919"/>
<g clip-path="url(#clip1_2_297)">
<path d="M102.448 20.7546H122.769V0.449951H102.448V20.7546Z" fill="#00B67A"/>
<path d="M119.771 9.08872L108.246 17.4548L109.927 12.2843L105.525 9.08872H110.967L112.648 3.91785L114.33 9.08872H119.771ZM112.649 14.2596L115.796 13.598L117.05 17.4548L112.649 14.2596Z" fill="white"/>
<path d="M124.904 20.7546H145.225V0.449951H124.904V20.7546Z" fill="#00B67A"/>
<path d="M124.904 20.7546H135.065V0.449951H124.904V20.7546Z" fill="#00B67A"/>
<path d="M135.308 14.1806L138.007 13.5978L139.255 17.5421L135.023 14.3854L130.625 17.5421L132.332 12.3528L127.863 9.14571H133.386L135.093 3.95605L136.8 9.14571H142.323L135.308 14.1806Z" fill="white"/>
<path d="M147.376 20.7546H167.697V0.449951H147.376V20.7546Z" fill="#00B67A"/>
<path d="M147.376 20.7546H157.536V0.449951H147.376V20.7546Z" fill="#00B67A"/>
<path d="M164.699 9.08872L153.174 17.4548L154.855 12.2843L150.453 9.08872H155.895L157.576 3.91785L159.258 9.08872L164.699 9.08872ZM157.577 14.2596L160.724 13.598L161.978 17.4548L157.577 14.2596Z" fill="white"/>
<path d="M169.847 20.7546H190.168V0.449951H169.847V20.7546Z" fill="#00B67A"/>
<path d="M169.847 20.7546H180.008V0.449951H169.847V20.7546Z" fill="#00B67A"/>
<path d="M187.17 9.08872L175.644 17.4548L177.326 12.2843L172.923 9.08872H178.365L180.047 3.91785L181.728 9.08872L187.17 9.08872ZM180.047 14.2596L183.195 13.598L184.449 17.4548L180.047 14.2596Z" fill="white"/>
<path d="M192.303 20.7546H212.624V0.449951H192.303V20.7546Z" fill="#DCDCE6"/>
<path d="M192.303 20.7546H202.464V0.449951H192.303V20.7546Z" fill="#00B67A"/>
<path d="M209.626 9.08872L198.1 17.4548L199.782 12.2843L195.379 9.08872H200.821L202.502 3.91785L204.184 9.08872H209.626ZM202.503 14.2596L205.65 13.598L206.905 17.4548L202.503 14.2596Z" fill="white"/>
</g>
<path d="M229.746 16.5499H228.516V8.70911C228.22 8.99166 227.83 9.27421 227.347 9.55676C226.868 9.83931 226.438 10.0512 226.055 10.1925V9.00305C226.743 8.67948 227.345 8.28756 227.86 7.82727C228.375 7.36698 228.739 6.92037 228.953 6.48743H229.746V16.5499ZM236.849 16.5499V14.1505H232.501V13.0226L237.074 6.52844H238.079V13.0226H239.433V14.1505H238.079V16.5499H236.849ZM236.849 13.0226V8.50403L233.711 13.0226H236.849ZM244.642 16.5499V14.1505H240.294V13.0226L244.867 6.52844H245.872V13.0226H247.226V14.1505H245.872V16.5499H244.642ZM244.642 13.0226V8.50403L241.504 13.0226H244.642Z" fill="#191919"/>
<path d="M252.68 16.5499V9.29016H253.787V10.3907C254.07 9.87577 254.33 9.53625 254.567 9.37219C254.808 9.20813 255.073 9.1261 255.36 9.1261C255.774 9.1261 256.196 9.25826 256.624 9.52258L256.201 10.6642C255.9 10.4865 255.599 10.3976 255.298 10.3976C255.029 10.3976 254.788 10.4796 254.574 10.6437C254.359 10.8032 254.207 11.0265 254.116 11.3136C253.979 11.7511 253.911 12.2296 253.911 12.7491V16.5499H252.68ZM262.326 14.212L263.597 14.3693C263.397 15.1121 263.025 15.6886 262.483 16.0988C261.94 16.5089 261.248 16.714 260.405 16.714C259.343 16.714 258.5 16.3881 257.875 15.7365C257.256 15.0802 256.946 14.1619 256.946 12.9816C256.946 11.7602 257.26 10.8123 257.889 10.1378C258.518 9.46334 259.334 9.1261 260.336 9.1261C261.307 9.1261 262.1 9.4565 262.715 10.1173C263.33 10.7781 263.638 11.7078 263.638 12.9064C263.638 12.9793 263.636 13.0887 263.631 13.2345H258.217C258.263 14.032 258.488 14.6427 258.894 15.0665C259.3 15.4904 259.805 15.7023 260.411 15.7023C260.863 15.7023 261.248 15.5838 261.567 15.3468C261.886 15.1098 262.139 14.7316 262.326 14.212ZM258.286 12.2228H262.339C262.285 11.6121 262.13 11.1541 261.874 10.8488C261.482 10.3748 260.974 10.1378 260.35 10.1378C259.785 10.1378 259.309 10.3269 258.921 10.7052C258.538 11.0835 258.327 11.5893 258.286 12.2228ZM267.165 16.5499L264.404 9.29016H265.703L267.261 13.6378C267.43 14.1072 267.585 14.5948 267.726 15.1007C267.835 14.7179 267.988 14.2576 268.184 13.7198L269.797 9.29016H271.062L268.314 16.5499H267.165ZM272.156 7.94348V6.52844H273.386V7.94348H272.156ZM272.156 16.5499V9.29016H273.386V16.5499H272.156ZM280.236 14.212L281.507 14.3693C281.307 15.1121 280.935 15.6886 280.393 16.0988C279.851 16.5089 279.158 16.714 278.315 16.714C277.253 16.714 276.41 16.3881 275.786 15.7365C275.166 15.0802 274.856 14.1619 274.856 12.9816C274.856 11.7602 275.17 10.8123 275.799 10.1378C276.428 9.46334 277.244 9.1261 278.246 9.1261C279.217 9.1261 280.01 9.4565 280.625 10.1173C281.241 10.7781 281.548 11.7078 281.548 12.9064C281.548 12.9793 281.546 13.0887 281.541 13.2345H276.127C276.173 14.032 276.398 14.6427 276.804 15.0665C277.21 15.4904 277.716 15.7023 278.322 15.7023C278.773 15.7023 279.158 15.5838 279.477 15.3468C279.796 15.1098 280.049 14.7316 280.236 14.212ZM276.196 12.2228H280.249C280.195 11.6121 280.04 11.1541 279.785 10.8488C279.393 10.3748 278.884 10.1378 278.26 10.1378C277.695 10.1378 277.219 10.3269 276.831 10.7052C276.449 11.0835 276.237 11.5893 276.196 12.2228ZM284.399 16.5499L282.177 9.29016H283.449L284.604 13.4806L285.035 15.0392C285.053 14.9617 285.178 14.4627 285.411 13.5421L286.566 9.29016H287.83L288.917 13.5011L289.28 14.8888L289.697 13.4874L290.941 9.29016H292.137L289.868 16.5499H288.589L287.434 12.2023L287.154 10.965L285.684 16.5499H284.399ZM292.684 14.3829L293.901 14.1915C293.969 14.6792 294.158 15.0529 294.468 15.3126C294.783 15.5724 295.22 15.7023 295.781 15.7023C296.346 15.7023 296.765 15.5883 297.038 15.3605C297.312 15.1281 297.449 14.8569 297.449 14.547C297.449 14.269 297.328 14.0503 297.086 13.8907C296.918 13.7814 296.498 13.6424 295.828 13.4738C294.926 13.2459 294.3 13.0499 293.949 12.8859C293.602 12.7172 293.338 12.4871 293.156 12.1954C292.978 11.8992 292.889 11.5734 292.889 11.2179C292.889 10.8943 292.962 10.5958 293.108 10.3224C293.258 10.0444 293.461 9.81425 293.716 9.63196C293.908 9.49068 294.167 9.37219 294.495 9.27649C294.828 9.17623 295.184 9.1261 295.562 9.1261C296.132 9.1261 296.631 9.20813 297.059 9.37219C297.492 9.53625 297.811 9.75956 298.016 10.0421C298.221 10.3201 298.362 10.6938 298.44 11.1632L297.237 11.3273C297.182 10.9536 297.022 10.6619 296.758 10.4523C296.498 10.2426 296.129 10.1378 295.651 10.1378C295.086 10.1378 294.682 10.2312 294.441 10.4181C294.199 10.6049 294.078 10.8237 294.078 11.0743C294.078 11.2338 294.129 11.3774 294.229 11.505C294.329 11.6372 294.486 11.7465 294.701 11.8331C294.824 11.8787 295.186 11.9835 295.787 12.1476C296.658 12.38 297.264 12.5714 297.606 12.7218C297.952 12.8676 298.223 13.0818 298.419 13.3644C298.615 13.6469 298.713 13.9978 298.713 14.4171C298.713 14.8273 298.592 15.2146 298.351 15.5792C298.114 15.9392 297.77 16.2195 297.319 16.42C296.868 16.616 296.357 16.714 295.787 16.714C294.844 16.714 294.124 16.518 293.627 16.1261C293.135 15.7342 292.821 15.1531 292.684 14.3829ZM303.615 12.92C303.615 11.5756 303.988 10.5799 304.736 9.93274C305.36 9.39498 306.121 9.1261 307.019 9.1261C308.017 9.1261 308.833 9.45422 309.466 10.1105C310.1 10.7622 310.416 11.6645 310.416 12.8175C310.416 13.7517 310.275 14.4878 309.993 15.0255C309.715 15.5587 309.307 15.9734 308.769 16.2697C308.236 16.5659 307.652 16.714 307.019 16.714C306.003 16.714 305.18 16.3881 304.551 15.7365C303.927 15.0848 303.615 14.146 303.615 12.92ZM304.879 12.92C304.879 13.8497 305.082 14.547 305.488 15.0118C305.893 15.4721 306.404 15.7023 307.019 15.7023C307.63 15.7023 308.138 15.4698 308.543 15.005C308.949 14.5402 309.152 13.8315 309.152 12.879C309.152 11.9812 308.947 11.3022 308.536 10.8419C308.131 10.3771 307.625 10.1447 307.019 10.1447C306.404 10.1447 305.893 10.3748 305.488 10.8351C305.082 11.2954 304.879 11.9904 304.879 12.92ZM311.866 16.5499V9.29016H312.973V10.3224C313.506 9.52486 314.276 9.1261 315.284 9.1261C315.721 9.1261 316.122 9.20585 316.487 9.36536C316.856 9.5203 317.132 9.72538 317.314 9.98059C317.496 10.2358 317.624 10.5389 317.697 10.8898C317.742 11.1176 317.765 11.5164 317.765 12.0861V16.5499H316.535V12.1339C316.535 11.6326 316.487 11.2589 316.391 11.0128C316.295 10.7622 316.124 10.5639 315.878 10.4181C315.637 10.2677 315.352 10.1925 315.024 10.1925C314.5 10.1925 314.046 10.3588 313.663 10.6915C313.285 11.0242 313.096 11.6554 313.096 12.5851V16.5499H311.866Z" fill="#191919"/>
<g clip-path="url(#clip2_2_297)">
<path d="M347.62 7.72412H355.707V9.22424H352.527V17.6572H350.779V9.22424H347.613V7.72412H347.62ZM355.361 10.465H356.856V11.853H356.884C356.933 11.6567 357.025 11.4674 357.159 11.2852C357.293 11.1029 357.455 10.9276 357.646 10.7804C357.836 10.6262 358.047 10.5071 358.28 10.4089C358.513 10.3178 358.752 10.2687 358.992 10.2687C359.175 10.2687 359.309 10.2757 359.38 10.2827C359.45 10.2897 359.521 10.3038 359.598 10.3108V11.8389C359.486 11.8179 359.373 11.8039 359.253 11.7899C359.133 11.7758 359.02 11.7688 358.907 11.7688C358.64 11.7688 358.386 11.8249 358.146 11.9301C357.906 12.0352 357.702 12.1964 357.526 12.3997C357.349 12.61 357.208 12.8624 357.103 13.1708C356.997 13.4793 356.948 13.8298 356.948 14.2293V17.6502H355.354V10.465L355.361 10.465ZM366.924 17.6572H365.358V16.6547H365.33C365.133 17.0193 364.844 17.3067 364.456 17.524C364.068 17.7413 363.673 17.8534 363.272 17.8534C362.32 17.8534 361.629 17.6221 361.206 17.1524C360.783 16.6828 360.571 15.9748 360.571 15.0284V10.465H362.165V14.8742C362.165 15.5051 362.285 15.9538 362.531 16.2131C362.771 16.4725 363.116 16.6057 363.554 16.6057C363.892 16.6057 364.167 16.5566 364.393 16.4515C364.618 16.3463 364.801 16.2131 364.935 16.0379C365.076 15.8696 365.175 15.6593 365.239 15.421C365.302 15.1827 365.33 14.9233 365.33 14.6429V10.472H366.924V17.6572ZM369.638 15.3509C369.687 15.8136 369.864 16.136 370.167 16.3253C370.477 16.5075 370.844 16.6057 371.274 16.6057C371.422 16.6057 371.591 16.5917 371.781 16.5706C371.972 16.5496 372.155 16.5005 372.317 16.4374C372.486 16.3743 372.62 16.2762 372.733 16.15C372.839 16.0239 372.888 15.8626 372.881 15.6593C372.874 15.4561 372.796 15.2878 372.655 15.1616C372.514 15.0284 372.338 14.9303 372.12 14.8462C371.901 14.7691 371.654 14.699 371.372 14.6429C371.09 14.5868 370.808 14.5237 370.519 14.4606C370.223 14.3976 369.934 14.3134 369.659 14.2223C369.384 14.1312 369.137 14.005 368.919 13.8438C368.7 13.6896 368.524 13.4863 368.397 13.2409C368.263 12.9956 368.2 12.6941 368.2 12.3296C368.2 11.9371 368.298 11.6146 368.489 11.3482C368.679 11.0819 368.926 10.8716 369.215 10.7103C369.511 10.5491 369.835 10.437 370.195 10.3669C370.554 10.3038 370.9 10.2687 371.224 10.2687C371.598 10.2687 371.957 10.3108 372.296 10.3879C372.634 10.465 372.944 10.5912 373.219 10.7734C373.494 10.9487 373.72 11.18 373.903 11.4604C374.087 11.7408 374.199 12.0843 374.249 12.4838H372.585C372.507 12.1053 372.338 11.8459 372.063 11.7198C371.788 11.5866 371.471 11.5235 371.118 11.5235C371.006 11.5235 370.872 11.5305 370.717 11.5515C370.562 11.5726 370.42 11.6076 370.279 11.6567C370.146 11.7057 370.033 11.7829 369.934 11.881C369.842 11.9791 369.793 12.1053 369.793 12.2665C369.793 12.4628 369.864 12.617 369.997 12.7362C370.131 12.8554 370.308 12.9535 370.526 13.0376C370.745 13.1147 370.992 13.1848 371.274 13.2409C371.556 13.297 371.845 13.3601 372.141 13.4232C372.43 13.4863 372.712 13.5704 372.994 13.6615C373.276 13.7526 373.523 13.8788 373.741 14.04C373.96 14.2013 374.136 14.3976 374.27 14.6359C374.404 14.8742 374.474 15.1757 374.474 15.5261C374.474 15.9538 374.376 16.3113 374.178 16.6127C373.981 16.9071 373.727 17.1524 373.417 17.3347C373.107 17.517 372.754 17.6572 372.373 17.7413C371.993 17.8254 371.612 17.8675 371.238 17.8675C370.78 17.8675 370.357 17.8184 369.969 17.7132C369.582 17.6081 369.243 17.4539 368.961 17.2506C368.679 17.0403 368.453 16.7809 368.291 16.4725C368.129 16.1641 368.045 15.7925 368.03 15.3649H369.638V15.3509ZM374.897 10.465H376.103V8.30594H377.696V10.465H379.135V11.6497H377.696V15.4911C377.696 15.6593 377.703 15.7995 377.717 15.9257C377.732 16.0449 377.767 16.15 377.816 16.2341C377.866 16.3183 377.943 16.3814 378.049 16.4234C378.155 16.4655 378.289 16.4865 378.472 16.4865C378.585 16.4865 378.697 16.4865 378.81 16.4795C378.923 16.4725 379.036 16.4585 379.149 16.4304V17.6572C378.972 17.6782 378.796 17.6922 378.634 17.7132C378.465 17.7343 378.296 17.7413 378.119 17.7413C377.696 17.7413 377.358 17.6992 377.104 17.6221C376.85 17.545 376.646 17.4258 376.505 17.2716C376.357 17.1174 376.265 16.9281 376.209 16.6968C376.159 16.4655 376.124 16.1991 376.117 15.9047V11.6637H374.911V10.465H374.897ZM380.263 10.465H381.771V11.4394H381.8C382.025 11.0188 382.335 10.7244 382.737 10.5421C383.139 10.3598 383.569 10.2687 384.042 10.2687C384.613 10.2687 385.106 10.3669 385.529 10.5701C385.952 10.7664 386.305 11.0398 386.587 11.3903C386.869 11.7408 387.073 12.1474 387.214 12.61C387.355 13.0727 387.426 13.5704 387.426 14.0961C387.426 14.5798 387.362 15.0495 387.235 15.4981C387.108 15.9538 386.918 16.3533 386.664 16.7038C386.41 17.0543 386.086 17.3277 385.691 17.538C385.296 17.7483 384.838 17.8534 384.302 17.8534C384.07 17.8534 383.837 17.8324 383.604 17.7903C383.372 17.7483 383.146 17.6782 382.935 17.5871C382.723 17.4959 382.519 17.3768 382.342 17.2296C382.159 17.0823 382.011 16.9141 381.884 16.7248H381.856V20.3139H380.263V10.465ZM385.832 14.0681C385.832 13.7456 385.79 13.4302 385.705 13.1218C385.621 12.8133 385.494 12.5469 385.325 12.3086C385.155 12.0703 384.944 11.881 384.697 11.7408C384.443 11.6006 384.154 11.5235 383.83 11.5235C383.16 11.5235 382.653 11.7548 382.314 12.2175C381.976 12.6801 381.807 13.297 381.807 14.0681C381.807 14.4326 381.849 14.7691 381.941 15.0775C382.032 15.386 382.159 15.6523 382.342 15.8766C382.519 16.101 382.73 16.2762 382.977 16.4024C383.224 16.5356 383.513 16.5987 383.837 16.5987C384.204 16.5987 384.507 16.5216 384.761 16.3743C385.014 16.2271 385.219 16.0309 385.381 15.7995C385.543 15.5612 385.663 15.2948 385.734 14.9934C385.797 14.692 385.832 14.3835 385.832 14.0681ZM388.645 7.72412H390.239V9.22424H388.645V7.72412ZM388.645 10.465H390.239V17.6572H388.645V10.465ZM391.663 7.72412H393.256V17.6572H391.663V7.72412ZM398.142 17.8534C397.564 17.8534 397.049 17.7553 396.598 17.566C396.147 17.3768 395.766 17.1104 395.449 16.7809C395.139 16.4444 394.899 16.0449 394.737 15.5822C394.575 15.1196 394.49 14.6079 394.49 14.0541C394.49 13.5073 394.575 13.0026 394.737 12.5399C394.899 12.0773 395.139 11.6777 395.449 11.3412C395.759 11.0048 396.147 10.7454 396.598 10.5561C397.049 10.3669 397.564 10.2687 398.142 10.2687C398.72 10.2687 399.235 10.3669 399.686 10.5561C400.137 10.7454 400.518 11.0118 400.835 11.3412C401.145 11.6777 401.385 12.0773 401.547 12.5399C401.709 13.0026 401.794 13.5073 401.794 14.0541C401.794 14.6079 401.709 15.1196 401.547 15.5822C401.385 16.0449 401.145 16.4444 400.835 16.7809C400.525 17.1174 400.137 17.3768 399.686 17.566C399.235 17.7553 398.72 17.8534 398.142 17.8534ZM398.142 16.5987C398.494 16.5987 398.805 16.5216 399.066 16.3743C399.326 16.2271 399.538 16.0309 399.707 15.7925C399.876 15.5542 399.996 15.2808 400.081 14.9794C400.158 14.678 400.201 14.3695 400.201 14.0541C400.201 13.7456 400.158 13.4442 400.081 13.1358C400.003 12.8273 399.876 12.561 399.707 12.3226C399.538 12.0843 399.326 11.895 399.066 11.7478C398.805 11.6006 398.494 11.5235 398.142 11.5235C397.789 11.5235 397.479 11.6006 397.218 11.7478C396.958 11.895 396.746 12.0913 396.577 12.3226C396.408 12.561 396.288 12.8273 396.203 13.1358C396.126 13.4442 396.083 13.7456 396.083 14.0541C396.083 14.3695 396.126 14.678 396.203 14.9794C396.281 15.2808 396.408 15.5542 396.577 15.7925C396.746 16.0309 396.958 16.2271 397.218 16.3743C397.479 16.5286 397.789 16.5987 398.142 16.5987ZM402.259 10.465H403.465V8.30594H405.058V10.465H406.496V11.6497H405.058V15.4911C405.058 15.6593 405.065 15.7995 405.079 15.9257C405.093 16.0449 405.129 16.15 405.178 16.2341C405.227 16.3183 405.305 16.3814 405.411 16.4234C405.516 16.4655 405.65 16.4865 405.834 16.4865C405.947 16.4865 406.059 16.4865 406.172 16.4795C406.285 16.4725 406.398 16.4585 406.511 16.4304V17.6572C406.334 17.6782 406.158 17.6922 405.996 17.7132C405.827 17.7343 405.657 17.7413 405.481 17.7413C405.058 17.7413 404.72 17.6992 404.466 17.6221C404.212 17.545 404.008 17.4258 403.867 17.2716C403.719 17.1174 403.627 16.9281 403.571 16.6968C403.521 16.4655 403.486 16.1991 403.479 15.9047V11.6637H402.273V10.465L402.259 10.465Z" fill="#191919"/>
<path d="M345.759 7.72403H338.455L336.199 0.812256L333.936 7.72403L326.632 7.71702L332.547 11.9931L330.284 18.8978L336.199 14.6288L342.107 18.8978L339.851 11.9931L345.759 7.72403Z" fill="#00B67A"/>
<path d="M340.358 13.5565L339.851 11.9932L336.199 14.6291L340.358 13.5565Z" fill="#005128"/>
</g>
</g>
<defs>
<clipPath id="clip0_2_297">
<rect width="420" height="20" fill="white" transform="translate(0 0.449951)"/>
</clipPath>
<clipPath id="clip1_2_297">
<rect width="110" height="20.16" fill="white" transform="translate(102.44 0.449951)"/>
</clipPath>
<clipPath id="clip2_2_297">
<rect width="80" height="19.67" fill="white" transform="translate(326.61 0.699951)"/>
</clipPath>
</defs>
</svg>
