<svg width="24" height="25" viewBox="0 0 24 25" fill="none" xmlns="http://www.w3.org/2000/svg">
<g clip-path="url(#clip0_22002_109)">
<path d="M9.1 19.8705C9.76304 19.8705 10.3989 20.1339 10.8678 20.6027C11.3366 21.0716 11.6 21.7074 11.6 22.3705C11.6 23.0335 11.3366 23.6694 10.8678 24.1383C10.3989 24.6071 9.76304 24.8705 9.1 24.8705C8.43696 24.8705 7.80107 24.6071 7.33223 24.1383C6.86339 23.6694 6.6 23.0335 6.6 22.3705C6.6 21.7074 6.86339 21.0716 7.33223 20.6027C7.80107 20.1339 8.43696 19.8705 9.1 19.8705ZM19.5 19.8705C20.163 19.8705 20.7989 20.1339 21.2678 20.6027C21.7366 21.0716 22 21.7074 22 22.3705C22 23.0335 21.7366 23.6694 21.2678 24.1383C20.7989 24.6071 20.163 24.8705 19.5 24.8705C18.837 24.8705 18.2011 24.6071 17.7322 24.1383C17.2634 23.6694 17 23.0335 17 22.3705C17 21.7074 17.2634 21.0716 17.7322 20.6027C18.2011 20.1339 18.837 19.8705 19.5 19.8705ZM9.1 21.8705C8.96739 21.8705 8.84021 21.9232 8.74645 22.0169C8.65268 22.1107 8.6 22.2379 8.6 22.3705C8.6 22.5031 8.65268 22.6303 8.74645 22.724C8.84021 22.8178 8.96739 22.8705 9.1 22.8705C9.23261 22.8705 9.35979 22.8178 9.45355 22.724C9.54732 22.6303 9.6 22.5031 9.6 22.3705C9.6 22.2379 9.54732 22.1107 9.45355 22.0169C9.35979 21.9232 9.23261 21.8705 9.1 21.8705ZM19.5 21.8705C19.3674 21.8705 19.2402 21.9232 19.1464 22.0169C19.0527 22.1107 19 22.2379 19 22.3705C19 22.5031 19.0527 22.6303 19.1464 22.724C19.2402 22.8178 19.3674 22.8705 19.5 22.8705C19.6326 22.8705 19.7598 22.8178 19.8536 22.724C19.9473 22.6303 20 22.5031 20 22.3705C20 22.2379 19.9473 22.1107 19.8536 22.0169C19.7598 21.9232 19.6326 21.8705 19.5 21.8705ZM22 2.87048C22.3213 2.8705 22.6379 2.94795 22.923 3.09626C23.208 3.24456 23.4531 3.45937 23.6376 3.72249C23.822 3.98562 23.9404 4.2893 23.9826 4.60785C24.0247 4.92639 23.9896 5.25042 23.88 5.55248L23.788 5.76448L19.788 13.7645C19.6408 14.0589 19.4232 14.3123 19.1546 14.5025C18.886 14.6926 18.5746 14.8135 18.248 14.8545L18 14.8705H10C9.87788 14.8703 9.75604 14.8589 9.636 14.8365L8.618 16.8705H21C21.2499 16.87 21.4909 16.9631 21.6756 17.1315C21.8602 17.2999 21.9752 17.5313 21.9978 17.7801C22.0203 18.029 21.9489 18.2773 21.7976 18.4761C21.6462 18.675 21.4259 18.81 21.18 18.8545L21 18.8705H8.618C8.29691 18.8703 7.98058 18.7929 7.69574 18.6447C7.4109 18.4965 7.16593 18.2819 6.98154 18.019C6.79714 17.7562 6.67875 17.4528 6.63636 17.1345C6.59397 16.8162 6.62883 16.4924 6.738 16.1905L6.83 15.9765L8.072 13.4885L4.212 5.76448C4.17397 5.68926 4.14057 5.61178 4.112 5.53248L2.78 2.87048H1C0.765949 2.87056 0.539285 2.78854 0.359482 2.6387C0.179679 2.48887 0.0581292 2.28071 0.0160001 2.05048L5.56206e-08 1.87048C-7.79722e-05 1.63643 0.0819429 1.40977 0.231779 1.22997C0.381615 1.05016 0.589772 0.928613 0.82 0.886484L1 0.870484H3.4C3.55407 0.870401 3.70607 0.905918 3.84414 0.974262C3.98222 1.04261 4.10264 1.14193 4.196 1.26448L4.296 1.42448L5.018 2.87048H22ZM22 4.87048H6.018L9.894 12.6225L9.96 12.7905L10 12.8705H18L22 4.87048Z" fill="white"/>
</g>
<defs>
<clipPath id="clip0_22002_109">
<rect width="24" height="24" fill="white" transform="translate(0 0.870483)"/>
</clipPath>
</defs>
</svg>
