<svg width="20" height="21" viewBox="0 0 20 21" fill="none" xmlns="http://www.w3.org/2000/svg">
<path fill-rule="evenodd" clip-rule="evenodd" d="M10 20.5C11.3132 20.5 12.6136 20.2413 13.8268 19.7388C15.0401 19.2362 16.1425 18.4997 17.0711 17.5711C17.9997 16.6425 18.7362 15.5401 19.2388 14.3268C19.7413 13.1136 20 11.8132 20 10.5C20 9.18678 19.7413 7.88642 19.2388 6.67317C18.7362 5.45991 17.9997 4.35752 17.0711 3.42893C16.1425 2.50035 15.0401 1.76375 13.8268 1.2612C12.6136 0.758658 11.3132 0.5 10 0.5C7.34784 0.5 4.8043 1.55357 2.92893 3.42893C1.05357 5.3043 0 7.84784 0 10.5C0 13.1522 1.05357 15.6957 2.92893 17.5711C4.8043 19.4464 7.34784 20.5 10 20.5ZM9.74222 14.5444L15.2978 7.87778L13.5911 6.45556L8.81333 12.1878L6.34111 9.71445L4.77 11.2856L8.10333 14.6189L8.96333 15.4789L9.74222 14.5444Z" fill="#04AC48"/>
</svg>
