<svg width="121" height="71" viewBox="0 0 121 71" fill="none" xmlns="http://www.w3.org/2000/svg">
<rect x="-25.2989" y="68.1452" width="156.764" height="33.4183" transform="rotate(-37.5057 -25.2989 68.1452)" fill="black"/>
<rect x="-25.2989" y="68.1452" width="156.764" height="33.4183" transform="rotate(-37.5057 -25.2989 68.1452)" stroke="black"/>
<path d="M14.2257 65.1764L8.51686 57.738L11.3644 55.5526C11.9019 55.1401 12.4137 54.882 12.8997 54.7783C13.3863 54.6703 13.8295 54.6938 14.2292 54.8487C14.6314 55.0017 14.9737 55.2623 15.2562 55.6303C15.4885 55.933 15.6292 56.2367 15.6784 56.5414C15.7257 56.8436 15.7024 57.1366 15.6085 57.4203C15.5145 57.704 15.3688 57.9679 15.1713 58.2118L15.227 58.2844C15.5021 58.0964 15.8174 57.9833 16.1729 57.9452C16.5289 57.9028 16.8867 57.9553 17.2461 58.1027C17.6054 58.2501 17.9301 58.5127 18.22 58.8904C18.5155 59.2754 18.688 59.6932 18.7375 60.1438C18.7853 60.592 18.6893 61.0485 18.4496 61.5133C18.21 61.9781 17.8057 62.4288 17.2366 62.8656L14.2257 65.1764ZM14.709 63.0163L16.1582 61.9041C16.6473 61.5287 16.9281 61.1651 17.0005 60.8133C17.0735 60.4572 16.9966 60.1314 16.7699 59.836C16.6008 59.6156 16.3939 59.4589 16.1493 59.3658C15.9028 59.2702 15.6401 59.2487 15.361 59.3013C15.0801 59.3514 14.8005 59.4833 14.522 59.697L13.0365 60.8371L14.709 63.0163ZM12.2923 59.8674L13.6252 58.8443C13.8577 58.6659 14.0346 58.4628 14.156 58.235C14.2755 58.0047 14.3282 57.77 14.3139 57.5309C14.3002 57.2874 14.2098 57.0567 14.0425 56.8388C13.8214 56.5507 13.5376 56.3914 13.1911 56.3611C12.847 56.3289 12.4764 56.4652 12.0793 56.77L10.7173 57.8153L12.2923 59.8674ZM20.9476 60.0174L15.2388 52.579L16.5863 51.5449L21.4282 57.8537L24.7043 55.3393L25.5712 56.4689L20.9476 60.0174ZM27.9756 54.6236L26.5373 55.7274L23.4472 46.2793L25.1106 45.0026L33.4418 50.4284L32.0035 51.5322L25.4787 47.1441L25.4206 47.1887L27.9756 54.6236ZM25.7844 51.6708L29.707 48.6603L30.5377 49.7426L26.6151 52.7532L25.7844 51.6708ZM36.6562 40.1296L35.2978 41.1721C35.0881 40.9791 34.8652 40.8365 34.6292 40.7445C34.3913 40.6501 34.1484 40.6018 33.9005 40.5997C33.6526 40.5976 33.4061 40.6424 33.1611 40.7343C32.9167 40.8218 32.6807 40.953 32.4531 41.1277C32.0487 41.438 31.7684 41.8147 31.6121 42.2578C31.454 42.6985 31.4362 43.1816 31.5586 43.7071C31.6792 44.2302 31.9541 44.7714 32.3834 45.3307C32.8201 45.8998 33.2764 46.3114 33.7524 46.5655C34.2289 46.8154 34.6983 46.9207 35.1606 46.8814C35.6235 46.8378 36.0559 46.6618 36.4579 46.3533C36.6806 46.1823 36.8666 45.9934 37.0157 45.7867C37.1654 45.5756 37.2731 45.3525 37.3388 45.1173C37.407 44.8803 37.4293 44.6362 37.4058 44.3849C37.3847 44.1318 37.3111 43.8805 37.185 43.631L38.5489 42.5957C38.7694 42.9882 38.9138 43.4045 38.9822 43.8445C39.053 44.2827 39.0439 44.7245 38.9548 45.1699C38.8638 45.6129 38.6879 46.0404 38.4269 46.4523C38.164 46.8618 37.8111 47.2366 37.368 47.5767C36.7142 48.0784 36.0145 48.375 35.2689 48.4663C34.5233 48.5576 33.7835 48.4309 33.0495 48.0861C32.3155 47.7414 31.6419 47.1695 31.0287 46.3705C30.4135 45.569 30.0365 44.7695 29.8977 43.9719C29.7569 43.1719 29.8271 42.4236 30.1081 41.7269C30.3891 41.0303 30.8541 40.433 31.503 39.9349C31.9171 39.6171 32.3467 39.3798 32.7918 39.2228C33.2369 39.0659 33.6852 38.9931 34.1364 39.0046C34.5859 39.0137 35.0247 39.1117 35.4529 39.2986C35.8816 39.4813 36.2827 39.7583 36.6562 40.1296ZM41.6728 44.1111L35.964 36.6728L37.3115 35.6386L39.9345 39.0563L40.0253 38.9866L40.3043 33.3417L41.9496 32.0789L41.6347 37.6245L47.6838 39.4978L46.064 40.741L41.3973 39.2553L41.3199 40.8614L43.0203 43.077L41.6728 44.1111ZM51.1315 36.8518L45.4227 29.4134L50.1879 25.7562L51.0548 26.8857L47.6371 29.5088L49.1869 31.5282L52.2778 29.156L53.1447 30.2856L50.0539 32.6577L52.479 35.8176L51.1315 36.8518ZM57.1243 32.2524L51.4155 24.814L54.2049 22.6732C54.7763 22.2346 55.332 21.9659 55.8718 21.8671C56.414 21.7665 56.9219 21.8192 57.3955 22.0251C57.8696 22.2268 58.2888 22.565 58.653 23.0396C59.0191 23.5166 59.2352 24.0087 59.3013 24.5159C59.3679 25.0188 59.2785 25.5164 59.0331 26.0087C58.7857 26.4987 58.3764 26.9629 57.8049 27.4015L55.8182 28.9262L54.9597 27.8076L56.7648 26.4222C57.0989 26.1657 57.3372 25.9097 57.4797 25.6542C57.6203 25.3962 57.6727 25.1386 57.6369 24.8814C57.6016 24.6199 57.4827 24.3572 57.2801 24.0932C57.0776 23.8293 56.8527 23.6441 56.6055 23.5375C56.3564 23.4286 56.0882 23.4075 55.8008 23.4741C55.5115 23.5384 55.1986 23.6997 54.862 23.958L53.6271 24.9057L58.4718 31.2182L57.1243 32.2524ZM58.3802 25.9327L62.8085 27.8899L61.3048 29.0439L56.9092 27.0616L58.3802 25.9327ZM59.415 18.6745L65.1239 26.1128L63.7764 27.147L58.0675 19.7086L59.415 18.6745ZM69.1036 23.0584L66.583 24.993L60.8742 17.5546L63.4457 15.581C64.1842 15.0142 64.9328 14.6763 65.6917 14.5671C66.4511 14.4537 67.1865 14.5646 67.8977 14.8998C68.609 15.235 69.2611 15.7888 69.8539 16.5612C70.4485 17.336 70.8155 18.1125 70.9548 18.8905C71.0965 19.6667 71.0117 20.4109 70.7003 21.1232C70.3913 21.8335 69.8591 22.4786 69.1036 23.0584ZM67.0357 22.7929L68.1435 21.9427C68.6616 21.545 69.0214 21.1189 69.2227 20.6643C69.4221 20.2073 69.4641 19.723 69.3485 19.2114C69.2311 18.6975 68.954 18.156 68.5173 17.587C68.0806 17.018 67.631 16.6127 67.1687 16.3712C66.7044 16.1273 66.23 16.0431 65.7455 16.1187C65.2616 16.19 64.7678 16.4189 64.2642 16.8055L63.1165 17.6863L67.0357 22.7929ZM74.5499 18.8785L73.1116 19.9824L70.0214 10.5342L71.6849 9.25755L80.016 14.6833L78.5778 15.7872L72.053 11.399L71.9949 11.4436L74.5499 18.8785ZM72.3587 15.9258L76.2813 12.9153L77.112 13.9976L73.1894 17.0081L72.3587 15.9258ZM74.0194 7.46587L75.5412 6.2979L79.8863 8.19196L79.959 8.13621L79.2531 3.44906L80.7749 2.28109L81.6482 9.0213L83.7779 11.7962L82.4341 12.8275L80.3044 10.0527L74.0194 7.46587Z" fill="#FFD902"/>
</svg>
