<svg width="123" height="71" viewBox="0 0 123 71" fill="none" xmlns="http://www.w3.org/2000/svg">
<rect width="157.764" height="34.4183" transform="translate(-23.1311 68.7786) rotate(-37.5057)" fill="#FFD200"/>
<path d="M17.0946 65.902L11.3858 58.4636L14.2333 56.2782C14.7708 55.8657 15.2826 55.6075 15.7686 55.5039C16.2552 55.3959 16.6984 55.4194 17.0981 55.5743C17.5003 55.7273 17.8426 55.9879 18.1251 56.3559C18.3574 56.6586 18.4981 56.9623 18.5473 57.267C18.5946 57.5692 18.5713 57.8622 18.4774 58.1459C18.3834 58.4296 18.2377 58.6934 18.0402 58.9374L18.0959 59.01C18.371 58.822 18.6863 58.7089 19.0418 58.6708C19.3978 58.6284 19.7556 58.6809 20.1149 58.8283C20.4743 58.9757 20.799 59.2383 21.0889 59.616C21.3844 60.001 21.5569 60.4188 21.6064 60.8694C21.6542 61.3176 21.5582 61.7741 21.3185 62.2389C21.0789 62.7037 20.6745 63.1544 20.1055 63.5911L17.0946 65.902ZM17.5779 63.7419L19.0271 62.6297C19.5162 62.2543 19.797 61.8907 19.8694 61.5389C19.9424 61.1827 19.8655 60.857 19.6388 60.5616C19.4697 60.3412 19.2628 60.1845 19.0182 60.0914C18.7717 59.9958 18.5089 59.9743 18.2299 60.0268C17.949 60.077 17.6694 60.2089 17.3909 60.4226L15.9054 61.5627L17.5779 63.7419ZM15.1612 60.5929L16.4941 59.5699C16.7266 59.3915 16.9035 59.1884 17.0249 58.9606C17.1444 58.7303 17.1971 58.4956 17.1828 58.2564C17.1691 58.013 17.0787 57.7823 16.9114 57.5644C16.6903 57.2763 16.4065 57.117 16.06 57.0867C15.7159 57.0545 15.3453 57.1908 14.9482 57.4955L13.5862 58.5409L15.1612 60.5929ZM23.8165 60.743L18.1077 53.3046L19.4552 52.2705L24.2971 58.5793L27.5732 56.0649L28.4401 57.1945L23.8165 60.743ZM30.8445 55.3492L29.4062 56.453L26.3161 47.0048L27.9795 45.7282L36.3107 51.1539L34.8724 52.2578L28.3476 47.8696L28.2895 47.9142L30.8445 55.3492ZM28.6533 52.3964L32.5759 49.3859L33.4066 50.4682L29.484 53.4787L28.6533 52.3964ZM39.5251 40.8551L38.1667 41.8977C37.957 41.7046 37.7341 41.5621 37.4981 41.4701C37.2602 41.3757 37.0173 41.3274 36.7694 41.3253C36.5215 41.3231 36.275 41.368 36.03 41.4599C35.7856 41.5474 35.5496 41.6786 35.322 41.8532C34.9176 42.1636 34.6373 42.5403 34.481 42.9834C34.3229 43.4241 34.3051 43.9072 34.4275 44.4327C34.5481 44.9558 34.823 45.497 35.2523 46.0563C35.689 46.6253 36.1453 47.0369 36.6213 47.2911C37.0978 47.541 37.5672 47.6463 38.0295 47.607C38.4924 47.5634 38.9248 47.3874 39.3268 47.0789C39.5495 46.9079 39.7355 46.719 39.8846 46.5122C40.0342 46.3012 40.142 46.0781 40.2077 45.8429C40.2759 45.6059 40.2982 45.3618 40.2747 45.1105C40.2536 44.8574 40.18 44.6061 40.0539 44.3566L41.4178 43.3213C41.6383 43.7138 41.7827 44.1301 41.8511 44.5701C41.9219 45.0083 41.9127 45.4501 41.8237 45.8955C41.7327 46.3385 41.5568 46.766 41.2958 47.1779C41.0329 47.5874 40.68 47.9622 40.2369 48.3023C39.5831 48.804 38.8834 49.1005 38.1378 49.1918C37.3922 49.2831 36.6524 49.1564 35.9184 48.8117C35.1844 48.467 34.5108 47.8951 33.8976 47.0961C33.2824 46.2946 32.9054 45.4951 32.7666 44.6975C32.6258 43.8975 32.696 43.1492 32.977 42.4525C33.258 41.7559 33.723 41.1585 34.3719 40.6605C34.786 40.3427 35.2156 40.1054 35.6607 39.9484C36.1058 39.7915 36.554 39.7187 37.0053 39.7302C37.4548 39.7392 37.8936 39.8372 38.3218 40.0242C38.7505 40.2069 39.1516 40.4838 39.5251 40.8551ZM44.5417 44.8367L38.8329 37.3984L40.1804 36.3642L42.8034 39.7819L42.8942 39.7122L43.1732 34.0673L44.8185 32.8045L44.5036 38.3501L50.5527 40.2234L48.9328 41.4666L44.2662 39.9809L44.1888 41.587L45.8892 43.8026L44.5417 44.8367ZM54.0004 37.5773L48.2916 30.139L53.0568 26.4818L53.9237 27.6113L50.506 30.2344L52.0558 32.2538L55.1467 29.8816L56.0136 31.0111L52.9228 33.3833L55.3479 36.5432L54.0004 37.5773ZM59.9932 32.9779L54.2844 25.5396L57.0738 23.3988C57.6452 22.9602 58.2009 22.6915 58.7407 22.5927C59.2829 22.4921 59.7908 22.5447 60.2644 22.7507C60.7385 22.9524 61.1577 23.2906 61.5219 23.7651C61.888 24.2421 62.1041 24.7342 62.1702 25.2414C62.2368 25.7444 62.1474 26.242 61.9019 26.7343C61.6546 27.2242 61.2453 27.6885 60.6738 28.1271L58.6871 29.6518L57.8286 28.5332L59.6337 27.1478C59.9678 26.8913 60.2061 26.6353 60.3486 26.3798C60.4892 26.1218 60.5416 25.8642 60.5058 25.607C60.4705 25.3455 60.3516 25.0828 60.149 24.8188C59.9465 24.5549 59.7216 24.3697 59.4744 24.2631C59.2253 24.1542 58.9571 24.133 58.6697 24.1997C58.3804 24.264 58.0675 24.4253 57.7309 24.6836L56.496 25.6313L61.3407 31.9438L59.9932 32.9779ZM61.2491 26.6582L65.6773 28.6155L64.1737 29.7695L59.7781 27.7872L61.2491 26.6582ZM62.2839 19.4001L67.9928 26.8384L66.6453 27.8726L60.9364 20.4342L62.2839 19.4001ZM71.9725 23.784L69.4519 25.7186L63.7431 18.2802L66.3145 16.3066C67.0531 15.7398 67.8017 15.4019 68.5606 15.2927C69.32 15.1793 70.0554 15.2902 70.7666 15.6254C71.4779 15.9606 72.13 16.5144 72.7228 17.2868C73.3174 18.0616 73.6844 18.838 73.8237 19.6161C73.9654 20.3923 73.8806 21.1365 73.5692 21.8487C73.2602 22.5591 72.728 23.2042 71.9725 23.784ZM69.9046 23.5185L71.0124 22.6683C71.5305 22.2706 71.8903 21.8445 72.0916 21.3899C72.291 20.9328 72.333 20.4486 72.2174 19.937C72.1 19.4231 71.8229 18.8816 71.3862 18.3126C70.9495 17.7436 70.4999 17.3383 70.0375 17.0968C69.5733 16.8529 69.0989 16.7687 68.6144 16.8443C68.1305 16.9156 67.6367 17.1445 67.1331 17.531L65.9854 18.4119L69.9046 23.5185ZM77.4188 19.6041L75.9805 20.708L72.8903 11.2598L74.5538 9.98313L82.8849 15.4089L81.4467 16.5128L74.9219 12.1246L74.8638 12.1692L77.4188 19.6041ZM75.2276 16.6514L79.1502 13.6409L79.9809 14.7232L76.0583 17.7337L75.2276 16.6514ZM76.8883 8.19146L78.4101 7.02349L82.7552 8.91755L82.8279 8.8618L82.122 4.17465L83.6438 3.00668L84.5171 9.74689L86.6468 12.5217L85.303 13.5531L83.1733 10.7783L76.8883 8.19146Z" fill="#0E0D11"/>
</svg>
