<svg width="24" height="25" viewBox="0 0 24 25" fill="none" xmlns="http://www.w3.org/2000/svg">
<path d="M20.25 9.37048C20.2508 7.98017 19.9003 6.6122 19.2309 5.39363C18.5616 4.17506 17.5951 3.14541 16.4213 2.40033C15.2475 1.65524 13.9044 1.21889 12.5168 1.13179C11.1293 1.04469 9.74217 1.30968 8.48441 1.90214C7.22665 2.49459 6.13901 3.3953 5.32253 4.52061C4.50604 5.64591 3.98718 6.95931 3.81415 8.33881C3.64111 9.71832 3.81951 11.1192 4.33278 12.4113C4.84605 13.7034 5.67753 14.8448 6.75 15.7295V22.8705C6.74991 22.9984 6.78253 23.1242 6.84477 23.2359C6.907 23.3477 6.99678 23.4417 7.10558 23.5089C7.21437 23.5762 7.33856 23.6145 7.46634 23.6203C7.59412 23.626 7.72124 23.599 7.83563 23.5417L12 21.4642L16.1653 23.5464C16.2697 23.5964 16.3842 23.6217 16.5 23.6205C16.6989 23.6205 16.8897 23.5415 17.0303 23.4008C17.171 23.2602 17.25 23.0694 17.25 22.8705V15.7295C18.1884 14.9567 18.944 13.9857 19.4627 12.8862C19.9814 11.7868 20.2503 10.5861 20.25 9.37048ZM5.25 9.37048C5.25 8.03546 5.64588 6.73042 6.38758 5.62038C7.12928 4.51035 8.18349 3.64519 9.41689 3.1343C10.6503 2.62341 12.0075 2.48973 13.3169 2.75018C14.6262 3.01063 15.829 3.65351 16.773 4.59751C17.717 5.54152 18.3599 6.74425 18.6203 8.05362C18.8808 9.363 18.7471 10.7202 18.2362 11.9536C17.7253 13.187 16.8601 14.2412 15.7501 14.9829C14.6401 15.7246 13.335 16.1205 12 16.1205C10.2104 16.1185 8.49466 15.4067 7.22922 14.1413C5.96378 12.8758 5.25199 11.1601 5.25 9.37048ZM6.75 9.37048C6.75 8.33213 7.05791 7.3171 7.63479 6.45374C8.21166 5.59038 9.0316 4.91748 9.99091 4.52012C10.9502 4.12276 12.0058 4.01879 13.0242 4.22136C14.0426 4.42393 14.9781 4.92395 15.7123 5.65817C16.4465 6.3924 16.9466 7.32786 17.1491 8.34626C17.3517 9.36466 17.2477 10.4203 16.8504 11.3796C16.453 12.3389 15.7801 13.1588 14.9167 13.7357C14.0534 14.3126 13.0384 14.6205 12 14.6205C10.6081 14.619 9.27358 14.0654 8.28934 13.0812C7.30509 12.0969 6.75149 10.7624 6.75 9.37048Z" fill="#06678F"/>
</svg>
