<svg width="158" height="38" viewBox="0 0 158 38" fill="none" xmlns="http://www.w3.org/2000/svg">
<path d="M13.0062 9.37306C13.5557 7.68185 15.9484 7.68185 16.4979 9.37306L17.637 12.8788C17.8827 13.6352 18.5875 14.1473 19.3828 14.1473H23.069C24.8472 14.1473 25.5866 16.4228 24.148 17.468L21.1658 19.6347C20.5224 20.1021 20.2532 20.9307 20.4989 21.687L21.638 25.1928C22.1875 26.884 20.2519 28.2904 18.8132 27.2451L15.831 25.0784C15.1876 24.611 14.3165 24.611 13.6731 25.0784L10.6909 27.2451C9.25225 28.2904 7.31658 26.884 7.86609 25.1928L9.00519 21.687C9.25094 20.9307 8.98172 20.1021 8.33835 19.6347L5.35614 17.468C3.91752 16.4228 4.65687 14.1473 6.43512 14.1473H10.1213C10.9166 14.1473 11.6214 13.6352 11.8671 12.8788L13.0062 9.37306Z" fill="#FFD902"/>
<path d="M45.1302 9.37306C45.6797 7.68185 48.0723 7.68185 48.6219 9.37306L49.761 12.8788C50.0067 13.6352 50.7115 14.1473 51.5068 14.1473H55.193C56.9712 14.1473 57.7106 16.4228 56.2719 17.468L53.2897 19.6347C52.6464 20.1021 52.3772 20.9307 52.6229 21.687L53.762 25.1928C54.3115 26.884 52.3758 28.2904 50.9372 27.2451L47.955 25.0784C47.3116 24.611 46.4404 24.611 45.7971 25.0784L42.8149 27.2451C41.3762 28.2904 39.4406 26.884 39.9901 25.1928L41.1292 21.687C41.3749 20.9307 41.1057 20.1021 40.4623 19.6347L37.4801 17.468C36.0415 16.4228 36.7809 14.1473 38.5591 14.1473H42.2453C43.0406 14.1473 43.7454 13.6352 43.9911 12.8788L45.1302 9.37306Z" fill="#FFD902"/>
<path d="M77.2542 9.37306C77.8037 7.68185 80.1963 7.68185 80.7458 9.37306L81.8849 12.8788C82.1307 13.6352 82.8355 14.1473 83.6307 14.1473H87.3169C89.0952 14.1473 89.8345 16.4228 88.3959 17.468L85.4137 19.6347C84.7703 20.1021 84.5011 20.9307 84.7469 21.687L85.886 25.1928C86.4355 26.884 84.4998 28.2904 83.0612 27.2451L80.079 25.0784C79.4356 24.611 78.5644 24.611 77.921 25.0784L74.9388 27.2451C73.5002 28.2904 71.5645 26.884 72.114 25.1928L73.2531 21.687C73.4989 20.9307 73.2297 20.1021 72.5863 19.6347L69.6041 17.468C68.1655 16.4228 68.9048 14.1473 70.6831 14.1473H74.3693C75.1645 14.1473 75.8693 13.6352 76.1151 12.8788L77.2542 9.37306Z" fill="#FFD902"/>
<path d="M109.378 9.37306C109.928 7.68185 112.32 7.68185 112.87 9.37306L114.009 12.8788C114.255 13.6352 114.959 14.1473 115.755 14.1473H119.441C121.219 14.1473 121.959 16.4228 120.52 17.468L117.538 19.6347C116.894 20.1021 116.625 20.9307 116.871 21.687L118.01 25.1928C118.559 26.884 116.624 28.2904 115.185 27.2451L112.203 25.0784C111.56 24.611 110.688 24.611 110.045 25.0784L107.063 27.2451C105.624 28.2904 103.689 26.884 104.238 25.1928L105.377 21.687C105.623 20.9307 105.354 20.1021 104.71 19.6347L101.728 17.468C100.289 16.4228 101.029 14.1473 102.807 14.1473H106.493C107.288 14.1473 107.993 13.6352 108.239 12.8788L109.378 9.37306Z" fill="#FFD902"/>
<path d="M141.502 9.37306C142.052 7.68185 144.444 7.68185 144.994 9.37306L146.133 12.8788C146.379 13.6352 147.083 14.1473 147.879 14.1473H151.565C153.343 14.1473 154.083 16.4228 152.644 17.468L149.662 19.6347C149.018 20.1021 148.749 20.9307 148.995 21.687L150.134 25.1928C150.683 26.884 148.748 28.2904 147.309 27.2451L144.327 25.0784C143.684 24.611 142.812 24.611 142.169 25.0784L139.187 27.2451C137.748 28.2904 135.813 26.884 136.362 25.1928L137.501 21.687C137.747 20.9307 137.478 20.1021 136.834 19.6347L133.852 17.468C132.413 16.4228 133.153 14.1473 134.931 14.1473H138.617C139.413 14.1473 140.117 13.6352 140.363 12.8788L141.502 9.37306Z" fill="#FFD902"/>
</svg>
